<?xml version="1.0" standalone="no"?>
<!DOCTYPE svg PUBLIC "-//W3C//DTD SVG 20010904//EN"
 "http://www.w3.org/TR/2001/REC-SVG-20010904/DTD/svg10.dtd">
<svg version="1.0" xmlns="http://www.w3.org/2000/svg"
 width="1024.000000pt" height="1024.000000pt" viewBox="0 0 1024.000000 1024.000000"
 preserveAspectRatio="xMidYMid meet">

<g transform="translate(0.000000,1024.000000) scale(0.100000,-0.100000)"
fill="#000000" stroke="none">
<path d="M5037 10226 c-167 -60 -290 -312 -304 -622 -8 -185 14 -323 77 -481
l30 -75 0 -216 c0 -119 -4 -222 -8 -228 -4 -6 -41 -14 -82 -18 -101 -10 -382
-61 -505 -92 -457 -116 -916 -347 -1312 -661 -51 -40 -97 -73 -102 -73 -5 0
-78 71 -163 159 -141 145 -157 166 -188 237 -116 270 -348 505 -608 616 -70
29 -86 32 -183 33 -100 0 -108 -2 -154 -30 -190 -117 -101 -478 190 -770 93
-94 186 -158 322 -225 107 -53 120 -63 273 -209 88 -84 160 -157 160 -162 0
-6 -41 -63 -92 -127 -399 -509 -647 -1109 -726 -1757 l-17 -140 -228 -3 c-207
-2 -230 -1 -265 17 -182 92 -512 118 -746 57 -176 -46 -313 -131 -372 -232
-34 -57 -35 -154 -4 -220 48 -98 195 -192 376 -241 89 -24 117 -26 279 -27
199 0 281 14 432 74 l75 30 226 -2 226 -3 18 -135 c87 -670 329 -1245 745
-1766 40 -51 73 -97 73 -102 0 -6 -72 -79 -160 -164 -141 -135 -169 -157 -237
-188 -118 -53 -154 -74 -241 -140 -155 -116 -304 -305 -373 -468 -25 -62 -33
-95 -37 -169 -4 -85 -3 -97 22 -146 74 -152 260 -163 516 -31 212 109 390 302
503 546 41 88 54 104 197 251 84 86 157 157 162 157 5 0 61 -40 124 -90 515
-402 1109 -648 1759 -728 l140 -17 3 -228 c2 -207 1 -230 -17 -265 -92 -182
-118 -512 -57 -746 46 -176 131 -313 232 -372 57 -34 154 -35 220 -4 98 48
192 195 241 376 24 89 26 117 27 279 0 199 -14 281 -74 432 l-30 75 2 226 3
227 100 11 c665 79 1262 327 1793 743 57 45 107 81 111 81 5 0 78 -71 163
-159 141 -145 157 -166 188 -237 93 -215 242 -392 443 -525 133 -87 222 -121
334 -127 85 -4 97 -3 146 22 193 94 156 390 -87 692 -110 137 -227 228 -403
314 -107 53 -120 63 -273 209 -88 84 -160 157 -160 162 0 6 41 63 92 127 400
511 646 1107 727 1761 l16 136 228 3 c207 2 230 1 265 -17 182 -92 512 -118
746 -57 176 46 313 131 372 232 34 57 35 154 4 220 -48 98 -195 192 -376 241
-89 24 -117 26 -279 27 -199 0 -281 -14 -432 -74 l-75 -30 -226 2 -226 3 -18
135 c-75 576 -257 1064 -575 1534 -51 76 -127 180 -168 231 -41 51 -75 98 -75
103 0 6 73 80 163 166 151 145 168 158 247 192 249 106 489 346 597 596 30 70
37 98 41 175 4 85 3 97 -22 146 -62 128 -199 156 -405 82 -257 -93 -482 -311
-614 -597 -41 -88 -54 -104 -197 -251 -84 -86 -157 -157 -162 -157 -5 0 -61
40 -124 90 -515 402 -1107 648 -1754 728 l-145 17 -3 228 c-2 207 -1 230 17
265 92 181 117 510 58 743 -53 205 -161 359 -277 393 -64 19 -93 19 -143 2z
m263 -2236 c608 -31 1186 -259 1667 -657 126 -104 338 -321 432 -443 286 -368
480 -789 566 -1230 41 -210 47 -308 42 -618 -4 -305 -10 -349 -73 -616 -87
-364 -268 -741 -512 -1066 -113 -151 -391 -429 -542 -542 -323 -243 -687 -418
-1054 -508 -293 -72 -319 -75 -696 -75 -368 0 -379 1 -646 61 -389 86 -790
279 -1134 544 -122 94 -396 368 -490 490 -122 158 -227 326 -315 505 -232 467
-323 912 -296 1445 31 593 256 1170 644 1650 155 192 416 432 617 567 384 258
777 410 1220 472 227 32 304 35 570 21z"/>
<path d="M4827 7693 c-4 -3 -7 -73 -7 -155 l0 -148 105 0 c58 0 105 -2 105 -4
0 -2 -14 -33 -30 -68 -71 -151 -106 -431 -90 -703 20 -319 112 -558 225 -581
134 -26 258 314 259 706 0 236 -31 424 -95 574 -16 37 -29 70 -29 72 0 2 45 4
100 4 l100 0 0 155 0 155 -318 0 c-175 0 -322 -3 -325 -7z"/>
<path d="M3300 6935 l-235 -235 105 -105 105 -105 70 70 c39 39 73 70 77 70 3
0 22 -34 42 -76 143 -302 498 -655 784 -780 102 -45 189 -48 229 -8 24 24 25
30 21 99 -6 88 -46 181 -137 313 -172 249 -493 531 -691 608 -25 9 -49 21 -55
26 -5 5 19 37 63 81 l72 72 -103 103 c-56 56 -105 102 -107 102 -3 0 -111
-106 -240 -235z"/>
<path d="M6610 7070 l-105 -99 74 -75 c41 -41 73 -77 70 -80 -2 -2 -42 -23
-89 -46 -173 -86 -346 -225 -519 -414 -194 -213 -314 -450 -281 -551 18 -54
48 -69 130 -63 245 18 711 429 894 789 l54 106 74 -74 75 -74 101 101 c56 56
102 105 102 109 0 7 -463 471 -470 471 -3 -1 -52 -45 -110 -100z"/>
<path d="M4944 5890 c-258 -67 -469 -254 -563 -499 -40 -105 -55 -203 -48
-326 7 -121 26 -194 78 -302 207 -432 755 -586 1152 -323 82 54 176 148 235
233 148 213 172 520 62 763 -106 235 -320 406 -572 458 -104 21 -254 20 -344
-4z m327 -345 c159 -56 284 -205 309 -367 55 -355 -323 -635 -646 -478 -77 37
-185 147 -220 224 -57 125 -55 258 6 384 62 125 203 232 332 252 65 10 167 3
219 -15z"/>
<path d="M5051 5263 c-79 -39 -112 -151 -69 -232 65 -122 232 -117 299 9 73
136 -88 293 -230 223z"/>
<path d="M2548 5454 c-5 -4 -8 -151 -8 -326 l0 -318 155 0 155 0 0 95 c0 107
2 110 71 75 48 -25 195 -64 304 -81 115 -19 427 -16 545 4 201 34 336 86 401
153 93 96 -6 203 -249 268 -147 39 -258 49 -499 43 -266 -6 -341 -21 -560
-114 -10 -4 -13 19 -13 96 l0 101 -82 0 c-46 0 -112 3 -148 6 -36 3 -68 3 -72
-2z"/>
<path d="M7410 5315 c0 -58 -2 -105 -4 -105 -2 0 -32 13 -67 30 -150 70 -327
94 -637 87 -186 -4 -232 -8 -323 -30 -210 -50 -329 -126 -329 -211 0 -47 79
-117 177 -154 174 -67 457 -102 675 -83 207 18 342 50 496 118 9 4 12 -19 12
-96 l0 -101 150 0 150 0 0 325 0 325 -150 0 -150 0 0 -105z"/>
<path d="M4321 4474 c-136 -36 -338 -173 -514 -347 -160 -159 -256 -286 -338
-450 -23 -45 -43 -84 -45 -86 -3 -3 -39 29 -80 70 l-75 74 -99 -105 c-55 -58
-99 -107 -100 -110 0 -3 106 -111 235 -240 l235 -235 105 105 105 105 -72 72
c-40 40 -69 75 -66 78 3 3 42 23 87 45 276 134 612 465 748 738 37 75 47 105
51 162 6 84 -9 114 -65 129 -46 13 -45 13 -112 -5z"/>
<path d="M5813 4476 c-71 -32 -78 -107 -20 -246 57 -139 155 -269 336 -450
176 -176 257 -238 418 -322 54 -27 99 -52 101 -53 2 -2 -28 -37 -67 -77 l-70
-74 105 -105 104 -104 237 238 238 237 -105 105 -105 105 -60 -58 c-97 -94
-87 -93 -129 -5 -121 254 -449 601 -696 736 -135 74 -230 98 -287 73z"/>
<path d="M5059 4175 c-58 -31 -121 -167 -158 -339 -66 -304 -33 -755 70 -957
10 -20 15 -39 12 -43 -4 -3 -51 -6 -105 -6 l-98 0 0 -150 0 -150 325 0 325 0
0 150 0 150 -101 0 c-93 0 -100 1 -94 18 90 207 117 353 117 622 0 154 -4 219
-20 310 -36 195 -86 316 -157 379 -39 34 -74 39 -116 16z"/>
</g>
</svg>
