{
	"asset":{
		"generator":"Khronos glTF Blender I/O v5.1.20",
		"version":"2.0"
	},
	"scene":0,
	"scenes":[
		{
			"name":"Scene",
			"nodes":[
				0
			]
		}
	],
	"nodes":[
		{
			"mesh":0,
			"name":"Mesh_0",
			"rotation":[
				0.7071068286895752,
				0,
				0,
				0.7071068286895752
			]
		}
	],
	"materials":[
		{
			"doubleSided":true,
			"name":"Material.001",
			"pbrMetallicRoughness":{
				"baseColorFactor":[
					0,
					0,
					0,
					1
				],
				"metallicFactor":0,
				"roughnessFactor":0.699999988079071
			}
		}
	],
	"meshes":[
		{
			"name":"Mesh_0",
			"primitives":[
				{
					"attributes":{
						"POSITION":0,
						"NORMAL":1,
						"TEXCOORD_0":2
					},
					"indices":3,
					"material":0
				}
			]
		}
	],
	"accessors":[
		{
			"bufferView":0,
			"componentType":5126,
			"count":4499880,
			"max":[
				0.31064698100090027,
				0.601869523525238,
				0
			],
			"min":[
				-0.31244903802871704,
				-0.5843156576156616,
				-0.265911728143692
			],
			"type":"VEC3"
		},
		{
			"bufferView":1,
			"componentType":5126,
			"count":4499880,
			"type":"VEC3"
		},
		{
			"bufferView":2,
			"componentType":5126,
			"count":4499880,
			"type":"VEC2"
		},
		{
			"bufferView":3,
			"componentType":5125,
			"count":4499880,
			"type":"SCALAR"
		}
	],
	"bufferViews":[
		{
			"buffer":0,
			"byteLength":53998560,
			"byteOffset":0,
			"target":34962
		},
		{
			"buffer":0,
			"byteLength":53998560,
			"byteOffset":53998560,
			"target":34962
		},
		{
			"buffer":0,
			"byteLength":35999040,
			"byteOffset":107997120,
			"target":34962
		},
		{
			"buffer":0,
			"byteLength":17999520,
			"byteOffset":143996160,
			"target":34963
		}
	],
	"buffers":[
		{
			"byteLength":161995680,
			"uri":"myMouseTECKNET.bin"
		}
	]
}
