{
	"asset":{
		"generator":"Khronos glTF Blender I/O v5.1.20",
		"version":"2.0"
	},
	"extensionsUsed":[
		"KHR_materials_clearcoat",
		"KHR_materials_specular",
		"KHR_materials_ior",
		"KHR_materials_sheen"
	],
	"scene":0,
	"scenes":[
		{
			"name":"Scene",
			"nodes":[
				16
			]
		}
	],
	"nodes":[
		{
			"mesh":0,
			"name":"BaseCover.002",
			"translation":[
				0,
				0.017326291650533676,
				0
			]
		},
		{
			"mesh":1,
			"name":"Charging pin.002",
			"translation":[
				0,
				0.017326291650533676,
				0
			]
		},
		{
			"mesh":2,
			"name":"Extruded.055",
			"translation":[
				0,
				0.017326291650533676,
				0
			]
		},
		{
			"mesh":3,
			"name":"Keyboard.002",
			"translation":[
				0,
				0.017326291650533676,
				0
			]
		},
		{
			"mesh":4,
			"name":"Main Body.002",
			"translation":[
				0,
				0.017326291650533676,
				0
			]
		},
		{
			"mesh":5,
			"name":"Revolved.002",
			"translation":[
				0,
				0.017326291650533676,
				0
			]
		},
		{
			"mesh":6,
			"name":"Apple-Logo-Iconic-Tech-Brand-Symbol-PNG-Transparent-Representa",
			"rotation":[
				0,
				-0.7071068286895752,
				0.7071068286895752,
				1.9949608542901842e-07
			],
			"scale":[
				0.05591730400919914,
				0.05591730400919914,
				0.05591730400919914
			],
			"translation":[
				-0.0006258503417484462,
				0.10361681878566742,
				-0.14938467741012573
			]
		},
		{
			"children":[
				6
			],
			"mesh":7,
			"name":"Display.002",
			"rotation":[
				0,
				-0.7071068286895752,
				0,
				0.7071068286895752
			],
			"translation":[
				-0.10795034468173981,
				0.00864408165216446,
				0
			]
		},
		{
			"mesh":8,
			"name":"Screengasket.002",
			"rotation":[
				0,
				-0.7071068286895752,
				0,
				0.7071068286895752
			],
			"translation":[
				-0.10795034468173981,
				0.00864408165216446,
				0
			]
		},
		{
			"children":[
				7,
				8
			],
			"name":"Rotate Screen.001",
			"rotation":[
				0,
				0.7071067094802856,
				0,
				0.7071068286895752
			],
			"translation":[
				0,
				0.008682209998369217,
				-0.10795034468173981
			]
		},
		{
			"mesh":9,
			"name":"Solid 428.002",
			"translation":[
				0,
				0.017326291650533676,
				0
			]
		},
		{
			"mesh":10,
			"name":"Solid 430.002",
			"translation":[
				0,
				0.017326291650533676,
				0
			]
		},
		{
			"mesh":11,
			"name":"Solid 432.002",
			"translation":[
				0,
				0.017326291650533676,
				0
			]
		},
		{
			"mesh":12,
			"name":"Solid 514.002",
			"translation":[
				0,
				0.017326291650533676,
				0
			]
		},
		{
			"mesh":13,
			"name":"Solid 515.002",
			"translation":[
				0,
				0.017326291650533676,
				0
			]
		},
		{
			"mesh":14,
			"name":"Trackpad.002",
			"translation":[
				0,
				0.017326291650533676,
				0
			]
		},
		{
			"children":[
				0,
				1,
				2,
				3,
				4,
				5,
				9,
				10,
				11,
				12,
				13,
				14,
				15
			],
			"name":"Macbook Pro 14 inch 2024"
		}
	],
	"materials":[
		{
			"doubleSided":true,
			"extensions":{
				"KHR_materials_specular":{
					"specularFactor":0.7820512652397156
				},
				"KHR_materials_ior":{
					"ior":1.4500000476837158
				}
			},
			"name":"GreyMetalic.002",
			"pbrMetallicRoughness":{
				"baseColorFactor":[
					0.11593151092529297,
					0.10972771048545837,
					0.11910790205001831,
					1
				]
			}
		},
		{
			"doubleSided":true,
			"extensions":{
				"KHR_materials_specular":{
					"specularFactor":0.7820512652397156
				},
				"KHR_materials_ior":{
					"ior":1.4500000476837158
				}
			},
			"name":"Silver Metalic.002",
			"pbrMetallicRoughness":{
				"baseColorFactor":[
					0.28422895073890686,
					0.28422895073890686,
					0.28422895073890686,
					1
				],
				"roughnessFactor":0
			}
		},
		{
			"doubleSided":true,
			"name":"Black Plastic.002",
			"pbrMetallicRoughness":{
				"baseColorFactor":[
					0.0019584554247558117,
					0.0019584554247558117,
					0.0019584554247558117,
					1
				],
				"metallicFactor":0
			}
		},
		{
			"alphaMode":"BLEND",
			"doubleSided":true,
			"name":"Keyboard.002",
			"pbrMetallicRoughness":{
				"baseColorTexture":{
					"index":0
				},
				"metallicFactor":0,
				"roughnessFactor":0.5
			}
		},
		{
			"doubleSided":true,
			"extensions":{
				"KHR_materials_specular":{
					"specularFactor":0.7820512652397156
				},
				"KHR_materials_ior":{
					"ior":1.4500000476837158
				}
			},
			"name":"BlackMetalic.002",
			"pbrMetallicRoughness":{
				"baseColorFactor":[
					0.010330025106668472,
					0.010330025106668472,
					0.010330025106668472,
					1
				]
			}
		},
		{
			"doubleSided":true,
			"name":"Soft Rubber.002",
			"pbrMetallicRoughness":{
				"baseColorFactor":[
					0.008343868888914585,
					0.008343868888914585,
					0.008343868888914585,
					1
				],
				"metallicFactor":0,
				"roughnessFactor":0.9285714030265808
			}
		},
		{
			"alphaMode":"BLEND",
			"doubleSided":true,
			"extensions":{
				"KHR_materials_clearcoat":{
					"clearcoatFactor":1
				},
				"KHR_materials_sheen":{
					"sheenRoughnessFactor":0.5
				}
			},
			"name":"Apple-Logo.001",
			"pbrMetallicRoughness":{
				"baseColorTexture":{
					"index":1
				},
				"metallicFactor":0,
				"roughnessFactor":0
			}
		},
		{
			"doubleSided":true,
			"name":"Bezel.003",
			"pbrMetallicRoughness":{
				"baseColorFactor":[
					0,
					0,
					0,
					1
				],
				"metallicFactor":0,
				"roughnessFactor":0.009999999776482582
			}
		}
	],
	"meshes":[
		{
			"name":"BaseCover.002",
			"primitives":[
				{
					"attributes":{
						"POSITION":0,
						"NORMAL":1
					},
					"indices":2,
					"material":0
				}
			]
		},
		{
			"name":"Charging pin.002",
			"primitives":[
				{
					"attributes":{
						"POSITION":3,
						"NORMAL":4
					},
					"indices":5,
					"material":1
				}
			]
		},
		{
			"name":"Extruded.011",
			"primitives":[
				{
					"attributes":{
						"POSITION":6,
						"NORMAL":7
					},
					"indices":8,
					"material":2
				}
			]
		},
		{
			"name":"Keyboard.002",
			"primitives":[
				{
					"attributes":{
						"POSITION":9,
						"NORMAL":10,
						"TEXCOORD_0":11
					},
					"indices":12,
					"material":3
				}
			]
		},
		{
			"name":"Main Body.002",
			"primitives":[
				{
					"attributes":{
						"POSITION":13,
						"NORMAL":14
					},
					"indices":15,
					"material":0
				},
				{
					"attributes":{
						"POSITION":16,
						"NORMAL":17
					},
					"indices":18,
					"material":4
				},
				{
					"attributes":{
						"POSITION":19,
						"NORMAL":20
					},
					"indices":21,
					"material":2
				}
			]
		},
		{
			"name":"Revolved.003",
			"primitives":[
				{
					"attributes":{
						"POSITION":22,
						"NORMAL":23
					},
					"indices":24,
					"material":5
				}
			]
		},
		{
			"name":"Apple-Logo-Iconic-Tech-Brand-Symbol-PNG-Transparent-Representa",
			"primitives":[
				{
					"attributes":{
						"POSITION":25,
						"NORMAL":26,
						"TEXCOORD_0":27
					},
					"indices":28,
					"material":6
				}
			]
		},
		{
			"name":"Display.002",
			"primitives":[
				{
					"attributes":{
						"POSITION":29,
						"NORMAL":30,
						"TEXCOORD_0":31
					},
					"indices":32,
					"material":0
				},
				{
					"attributes":{
						"POSITION":33,
						"NORMAL":34,
						"TEXCOORD_0":35
					},
					"indices":36,
					"material":7
				}
			]
		},
		{
			"name":"Screengasket.002",
			"primitives":[
				{
					"attributes":{
						"POSITION":37,
						"NORMAL":38
					},
					"indices":39,
					"material":5
				}
			]
		},
		{
			"name":"Solid 428.002",
			"primitives":[
				{
					"attributes":{
						"POSITION":40,
						"NORMAL":41
					},
					"indices":24,
					"material":5
				}
			]
		},
		{
			"name":"Solid 430.002",
			"primitives":[
				{
					"attributes":{
						"POSITION":42,
						"NORMAL":43
					},
					"indices":24,
					"material":5
				}
			]
		},
		{
			"name":"Solid 432.002",
			"primitives":[
				{
					"attributes":{
						"POSITION":44,
						"NORMAL":45
					},
					"indices":24,
					"material":5
				}
			]
		},
		{
			"name":"Solid 514.002",
			"primitives":[
				{
					"attributes":{
						"POSITION":46,
						"NORMAL":47
					},
					"indices":48,
					"material":0
				}
			]
		},
		{
			"name":"Solid 515.002",
			"primitives":[
				{
					"attributes":{
						"POSITION":49,
						"NORMAL":50
					},
					"indices":51,
					"material":0
				}
			]
		},
		{
			"name":"Trackpad.002",
			"primitives":[
				{
					"attributes":{
						"POSITION":52,
						"NORMAL":53
					},
					"indices":54,
					"material":0
				}
			]
		}
	],
	"textures":[
		{
			"sampler":0,
			"source":0
		},
		{
			"sampler":1,
			"source":1
		}
	],
	"images":[
		{
			"mimeType":"image/png",
			"name":"Top",
			"uri":"Top.png"
		},
		{
			"mimeType":"image/png",
			"name":"Apple-Logo-Iconic-Tech-Brand-Symbol-PNG-Transparent-Representation-of-Innovation-and-Design",
			"uri":"Apple-Logo-Iconic-Tech-Brand-Symbol-PNG-Transparent-Representation-of-Innovation-and-Design.png"
		}
	],
	"accessors":[
		{
			"bufferView":0,
			"componentType":5126,
			"count":1602,
			"max":[
				0.15364907681941986,
				-0.014635265804827213,
				0.10794907063245773
			],
			"min":[
				-0.15364907681941986,
				-0.016513144597411156,
				-0.10794907063245773
			],
			"type":"VEC3"
		},
		{
			"bufferView":1,
			"componentType":5126,
			"count":1602,
			"type":"VEC3"
		},
		{
			"bufferView":2,
			"componentType":5123,
			"count":5964,
			"type":"SCALAR"
		},
		{
			"bufferView":3,
			"componentType":5126,
			"count":865,
			"max":[
				-0.15522928535938263,
				-0.007701897993683815,
				-0.07868288457393646
			],
			"min":[
				-0.15610000491142273,
				-0.008351882919669151,
				-0.08697635680437088
			],
			"type":"VEC3"
		},
		{
			"bufferView":4,
			"componentType":5126,
			"count":865,
			"type":"VEC3"
		},
		{
			"bufferView":5,
			"componentType":5123,
			"count":2478,
			"type":"SCALAR"
		},
		{
			"bufferView":6,
			"componentType":5126,
			"count":10301,
			"max":[
				0.10374999791383743,
				-0.004373152740299702,
				-0.10616476833820343
			],
			"min":[
				-0.10374999791383743,
				-0.008526052348315716,
				-0.11023988574743271
			],
			"type":"VEC3"
		},
		{
			"bufferView":7,
			"componentType":5126,
			"count":10301,
			"type":"VEC3"
		},
		{
			"bufferView":8,
			"componentType":5123,
			"count":28572,
			"type":"SCALAR"
		},
		{
			"bufferView":9,
			"componentType":5126,
			"count":31944,
			"max":[
				0.1363702416419983,
				-0.004573152866214514,
				0.017631182447075844
			],
			"min":[
				-0.13652834296226501,
				-0.006773152854293585,
				-0.09079888463020325
			],
			"type":"VEC3"
		},
		{
			"bufferView":10,
			"componentType":5126,
			"count":31944,
			"type":"VEC3"
		},
		{
			"bufferView":11,
			"componentType":5126,
			"count":31944,
			"type":"VEC2"
		},
		{
			"bufferView":12,
			"componentType":5123,
			"count":117441,
			"type":"SCALAR"
		},
		{
			"bufferView":13,
			"componentType":5126,
			"count":340861,
			"max":[
				0.15629999339580536,
				-0.004373152740299702,
				0.11060000211000443
			],
			"min":[
				-0.15629999339580536,
				-0.014635265804827213,
				-0.11060000211000443
			],
			"type":"VEC3"
		},
		{
			"bufferView":14,
			"componentType":5126,
			"count":340861,
			"type":"VEC3"
		},
		{
			"bufferView":15,
			"componentType":5125,
			"count":1077447,
			"type":"SCALAR"
		},
		{
			"bufferView":16,
			"componentType":5126,
			"count":35093,
			"max":[
				0.13998080790042877,
				-0.004373152740299702,
				0.02149384468793869
			],
			"min":[
				-0.15610000491142273,
				-0.00859347078949213,
				-0.09419354796409607
			],
			"type":"VEC3"
		},
		{
			"bufferView":17,
			"componentType":5126,
			"count":35093,
			"type":"VEC3"
		},
		{
			"bufferView":18,
			"componentType":5123,
			"count":124734,
			"type":"SCALAR"
		},
		{
			"bufferView":19,
			"componentType":5126,
			"count":2482,
			"max":[
				0.15619517862796783,
				-0.004373152740299702,
				-0.019784653559327126
			],
			"min":[
				-0.15615858137607574,
				-0.014635265804827213,
				-0.10794907063245773
			],
			"type":"VEC3"
		},
		{
			"bufferView":20,
			"componentType":5126,
			"count":2482,
			"type":"VEC3"
		},
		{
			"bufferView":21,
			"componentType":5123,
			"count":8286,
			"type":"SCALAR"
		},
		{
			"bufferView":22,
			"componentType":5126,
			"count":674,
			"max":[
				0.13842788338661194,
				-0.016513144597411156,
				-0.07365863025188446
			],
			"min":[
				0.11945840716362,
				-0.017326291650533676,
				-0.0926281064748764
			],
			"type":"VEC3"
		},
		{
			"bufferView":23,
			"componentType":5126,
			"count":674,
			"type":"VEC3"
		},
		{
			"bufferView":24,
			"componentType":5123,
			"count":3060,
			"type":"SCALAR"
		},
		{
			"bufferView":25,
			"componentType":5126,
			"count":4,
			"max":[
				0.4545454680919647,
				0,
				0.5
			],
			"min":[
				-0.4545454680919647,
				0,
				-0.5
			],
			"type":"VEC3"
		},
		{
			"bufferView":26,
			"componentType":5126,
			"count":4,
			"type":"VEC3"
		},
		{
			"bufferView":27,
			"componentType":5126,
			"count":4,
			"type":"VEC2"
		},
		{
			"bufferView":28,
			"componentType":5123,
			"count":6,
			"type":"SCALAR"
		},
		{
			"bufferView":29,
			"componentType":5126,
			"count":1803,
			"max":[
				0.15629999339580536,
				0.20985348522663116,
				-0.10595037043094635
			],
			"min":[
				-0.15629999339580536,
				-0.011350405402481556,
				-0.11655635386705399
			],
			"type":"VEC3"
		},
		{
			"bufferView":30,
			"componentType":5126,
			"count":1803,
			"type":"VEC3"
		},
		{
			"bufferView":31,
			"componentType":5126,
			"count":1803,
			"type":"VEC2"
		},
		{
			"bufferView":32,
			"componentType":5123,
			"count":6531,
			"type":"SCALAR"
		},
		{
			"bufferView":33,
			"componentType":5126,
			"count":87,
			"max":[
				0.1543000042438507,
				0.2078534960746765,
				-0.11218320578336716
			],
			"min":[
				-0.1543000042438507,
				0.0035625004675239325,
				-0.11218320578336716
			],
			"type":"VEC3"
		},
		{
			"bufferView":34,
			"componentType":5126,
			"count":87,
			"type":"VEC3"
		},
		{
			"bufferView":35,
			"componentType":5126,
			"count":87,
			"type":"VEC2"
		},
		{
			"bufferView":36,
			"componentType":5123,
			"count":261,
			"type":"SCALAR"
		},
		{
			"bufferView":37,
			"componentType":5126,
			"count":2376,
			"max":[
				0.15549999475479126,
				0.20905348658561707,
				-0.11198320239782333
			],
			"min":[
				-0.15549999475479126,
				-0.0060465107671916485,
				-0.11238320171833038
			],
			"type":"VEC3"
		},
		{
			"bufferView":38,
			"componentType":5126,
			"count":2376,
			"type":"VEC3"
		},
		{
			"bufferView":39,
			"componentType":5123,
			"count":11736,
			"type":"SCALAR"
		},
		{
			"bufferView":40,
			"componentType":5126,
			"count":674,
			"max":[
				-0.11945840716362,
				-0.016513144597411156,
				-0.07365863025188446
			],
			"min":[
				-0.13842788338661194,
				-0.017326291650533676,
				-0.0926281064748764
			],
			"type":"VEC3"
		},
		{
			"bufferView":41,
			"componentType":5126,
			"count":674,
			"type":"VEC3"
		},
		{
			"bufferView":42,
			"componentType":5126,
			"count":674,
			"max":[
				-0.11945840716362,
				-0.016513144597411156,
				0.0926281064748764
			],
			"min":[
				-0.13842788338661194,
				-0.017326291650533676,
				0.07365863025188446
			],
			"type":"VEC3"
		},
		{
			"bufferView":43,
			"componentType":5126,
			"count":674,
			"type":"VEC3"
		},
		{
			"bufferView":44,
			"componentType":5126,
			"count":674,
			"max":[
				0.13842788338661194,
				-0.016513144597411156,
				0.0926281064748764
			],
			"min":[
				0.11945840716362,
				-0.017326291650533676,
				0.07365863025188446
			],
			"type":"VEC3"
		},
		{
			"bufferView":45,
			"componentType":5126,
			"count":674,
			"type":"VEC3"
		},
		{
			"bufferView":46,
			"componentType":5126,
			"count":100,
			"max":[
				0.11874999850988388,
				-0.004427705425769091,
				-0.10623857378959656
			],
			"min":[
				0.10374999791383743,
				-0.006936862599104643,
				-0.11022952198982239
			],
			"type":"VEC3"
		},
		{
			"bufferView":47,
			"componentType":5126,
			"count":100,
			"type":"VEC3"
		},
		{
			"bufferView":48,
			"componentType":5123,
			"count":252,
			"type":"SCALAR"
		},
		{
			"bufferView":49,
			"componentType":5126,
			"count":100,
			"max":[
				-0.10374999791383743,
				-0.004427705425769091,
				-0.10623857378959656
			],
			"min":[
				-0.11874999850988388,
				-0.006936862599104643,
				-0.11022952198982239
			],
			"type":"VEC3"
		},
		{
			"bufferView":50,
			"componentType":5126,
			"count":100,
			"type":"VEC3"
		},
		{
			"bufferView":51,
			"componentType":5123,
			"count":252,
			"type":"SCALAR"
		},
		{
			"bufferView":52,
			"componentType":5126,
			"count":381,
			"max":[
				0.0645613819360733,
				-0.004373152740299702,
				0.10479314625263214
			],
			"min":[
				-0.0643705204129219,
				-0.006373152602463961,
				0.024380775168538094
			],
			"type":"VEC3"
		},
		{
			"bufferView":53,
			"componentType":5126,
			"count":381,
			"type":"VEC3"
		},
		{
			"bufferView":54,
			"componentType":5123,
			"count":1404,
			"type":"SCALAR"
		}
	],
	"bufferViews":[
		{
			"buffer":0,
			"byteLength":19224,
			"byteOffset":0,
			"target":34962
		},
		{
			"buffer":0,
			"byteLength":19224,
			"byteOffset":19224,
			"target":34962
		},
		{
			"buffer":0,
			"byteLength":11928,
			"byteOffset":38448,
			"target":34963
		},
		{
			"buffer":0,
			"byteLength":10380,
			"byteOffset":50376,
			"target":34962
		},
		{
			"buffer":0,
			"byteLength":10380,
			"byteOffset":60756,
			"target":34962
		},
		{
			"buffer":0,
			"byteLength":4956,
			"byteOffset":71136,
			"target":34963
		},
		{
			"buffer":0,
			"byteLength":123612,
			"byteOffset":76092,
			"target":34962
		},
		{
			"buffer":0,
			"byteLength":123612,
			"byteOffset":199704,
			"target":34962
		},
		{
			"buffer":0,
			"byteLength":57144,
			"byteOffset":323316,
			"target":34963
		},
		{
			"buffer":0,
			"byteLength":383328,
			"byteOffset":380460,
			"target":34962
		},
		{
			"buffer":0,
			"byteLength":383328,
			"byteOffset":763788,
			"target":34962
		},
		{
			"buffer":0,
			"byteLength":255552,
			"byteOffset":1147116,
			"target":34962
		},
		{
			"buffer":0,
			"byteLength":234882,
			"byteOffset":1402668,
			"target":34963
		},
		{
			"buffer":0,
			"byteLength":4090332,
			"byteOffset":1637552,
			"target":34962
		},
		{
			"buffer":0,
			"byteLength":4090332,
			"byteOffset":5727884,
			"target":34962
		},
		{
			"buffer":0,
			"byteLength":4309788,
			"byteOffset":9818216,
			"target":34963
		},
		{
			"buffer":0,
			"byteLength":421116,
			"byteOffset":14128004,
			"target":34962
		},
		{
			"buffer":0,
			"byteLength":421116,
			"byteOffset":14549120,
			"target":34962
		},
		{
			"buffer":0,
			"byteLength":249468,
			"byteOffset":14970236,
			"target":34963
		},
		{
			"buffer":0,
			"byteLength":29784,
			"byteOffset":15219704,
			"target":34962
		},
		{
			"buffer":0,
			"byteLength":29784,
			"byteOffset":15249488,
			"target":34962
		},
		{
			"buffer":0,
			"byteLength":16572,
			"byteOffset":15279272,
			"target":34963
		},
		{
			"buffer":0,
			"byteLength":8088,
			"byteOffset":15295844,
			"target":34962
		},
		{
			"buffer":0,
			"byteLength":8088,
			"byteOffset":15303932,
			"target":34962
		},
		{
			"buffer":0,
			"byteLength":6120,
			"byteOffset":15312020,
			"target":34963
		},
		{
			"buffer":0,
			"byteLength":48,
			"byteOffset":15318140,
			"target":34962
		},
		{
			"buffer":0,
			"byteLength":48,
			"byteOffset":15318188,
			"target":34962
		},
		{
			"buffer":0,
			"byteLength":32,
			"byteOffset":15318236,
			"target":34962
		},
		{
			"buffer":0,
			"byteLength":12,
			"byteOffset":15318268,
			"target":34963
		},
		{
			"buffer":0,
			"byteLength":21636,
			"byteOffset":15318280,
			"target":34962
		},
		{
			"buffer":0,
			"byteLength":21636,
			"byteOffset":15339916,
			"target":34962
		},
		{
			"buffer":0,
			"byteLength":14424,
			"byteOffset":15361552,
			"target":34962
		},
		{
			"buffer":0,
			"byteLength":13062,
			"byteOffset":15375976,
			"target":34963
		},
		{
			"buffer":0,
			"byteLength":1044,
			"byteOffset":15389040,
			"target":34962
		},
		{
			"buffer":0,
			"byteLength":1044,
			"byteOffset":15390084,
			"target":34962
		},
		{
			"buffer":0,
			"byteLength":696,
			"byteOffset":15391128,
			"target":34962
		},
		{
			"buffer":0,
			"byteLength":522,
			"byteOffset":15391824,
			"target":34963
		},
		{
			"buffer":0,
			"byteLength":28512,
			"byteOffset":15392348,
			"target":34962
		},
		{
			"buffer":0,
			"byteLength":28512,
			"byteOffset":15420860,
			"target":34962
		},
		{
			"buffer":0,
			"byteLength":23472,
			"byteOffset":15449372,
			"target":34963
		},
		{
			"buffer":0,
			"byteLength":8088,
			"byteOffset":15472844,
			"target":34962
		},
		{
			"buffer":0,
			"byteLength":8088,
			"byteOffset":15480932,
			"target":34962
		},
		{
			"buffer":0,
			"byteLength":8088,
			"byteOffset":15489020,
			"target":34962
		},
		{
			"buffer":0,
			"byteLength":8088,
			"byteOffset":15497108,
			"target":34962
		},
		{
			"buffer":0,
			"byteLength":8088,
			"byteOffset":15505196,
			"target":34962
		},
		{
			"buffer":0,
			"byteLength":8088,
			"byteOffset":15513284,
			"target":34962
		},
		{
			"buffer":0,
			"byteLength":1200,
			"byteOffset":15521372,
			"target":34962
		},
		{
			"buffer":0,
			"byteLength":1200,
			"byteOffset":15522572,
			"target":34962
		},
		{
			"buffer":0,
			"byteLength":504,
			"byteOffset":15523772,
			"target":34963
		},
		{
			"buffer":0,
			"byteLength":1200,
			"byteOffset":15524276,
			"target":34962
		},
		{
			"buffer":0,
			"byteLength":1200,
			"byteOffset":15525476,
			"target":34962
		},
		{
			"buffer":0,
			"byteLength":504,
			"byteOffset":15526676,
			"target":34963
		},
		{
			"buffer":0,
			"byteLength":4572,
			"byteOffset":15527180,
			"target":34962
		},
		{
			"buffer":0,
			"byteLength":4572,
			"byteOffset":15531752,
			"target":34962
		},
		{
			"buffer":0,
			"byteLength":2808,
			"byteOffset":15536324,
			"target":34963
		}
	],
	"samplers":[
		{
			"magFilter":9729,
			"minFilter":9987
		},
		{
			"magFilter":9729,
			"minFilter":9987,
			"wrapS":33071,
			"wrapT":33071
		}
	],
	"buffers":[
		{
			"byteLength":15539132,
			"uri":"thePC.bin"
		}
	]
}
